<?xml version="1.0" standalone="no"?>
<!DOCTYPE svg PUBLIC "-//W3C//DTD SVG 20010904//EN"
 "http://www.w3.org/TR/2001/REC-SVG-20010904/DTD/svg10.dtd">
<svg version="1.0" xmlns="http://www.w3.org/2000/svg"
 width="160.000000pt" height="163.000000pt" viewBox="0 0 160.000000 163.000000"
 preserveAspectRatio="xMidYMid meet">

<g transform="translate(0.000000,163.000000) scale(0.100000,-0.100000)"
fill="#000000" stroke="none">
<path d="M115 1543 c3 -21 32 -339 65 -707 33 -368 61 -670 62 -671 2 -2 130
-38 284 -82 l282 -79 283 79 c156 43 285 80 287 82 2 1 29 299 62 661 32 363
61 680 64 707 l5 47 -700 0 -699 0 5 -37z m643 -730 c2 -367 0 -463 -10 -463
-7 1 -98 25 -203 54 l-190 53 -3 81 c-2 45 1 82 5 82 4 0 64 -16 133 -35 69
-19 126 -35 128 -35 1 0 2 164 2 365 l0 366 68 -3 67 -3 3 -462z m552 443 c0
-12 -3 -51 -6 -85 l-7 -61 -148 0 -149 0 0 -120 c0 -140 -19 -128 160 -106 63
8 116 13 117 12 2 -2 -5 -103 -14 -226 l-18 -224 -180 -48 c-99 -26 -184 -48
-190 -48 -6 0 -8 31 -5 82 l5 82 122 32 c67 18 127 35 132 39 6 3 11 36 11 72
0 63 -1 65 -22 60 -26 -7 -204 -37 -231 -40 -16 -2 -17 17 -17 296 0 163 0
299 0 302 0 3 99 5 220 5 l220 0 0 -24z"/>
</g>
</svg>
