<?xml version="1.0" standalone="no"?>
<!DOCTYPE svg PUBLIC "-//W3C//DTD SVG 20010904//EN"
 "http://www.w3.org/TR/2001/REC-SVG-20010904/DTD/svg10.dtd">
<svg version="1.0" xmlns="http://www.w3.org/2000/svg"
 width="980.000000pt" height="980.000000pt" viewBox="0 0 980.000000 980.000000"
 preserveAspectRatio="xMidYMid meet">

<g transform="translate(0.000000,980.000000) scale(0.100000,-0.100000)"
fill="#000000" stroke="none">
<path d="M4560 9789 c-1035 -75 -1998 -463 -2800 -1128 -150 -123 -501 -475
-622 -621 -534 -647 -880 -1372 -1042 -2180 -259 -1290 18 -2648 761 -3727
277 -403 628 -778 1018 -1087 680 -539 1533 -896 2400 -1005 1488 -188 2966
303 4028 1338 427 416 739 843 992 1356 477 968 621 2065 409 3125 -169 848
-553 1624 -1130 2280 -112 128 -386 398 -509 501 -762 642 -1665 1026 -2665
1134 -174 19 -664 27 -840 14z m870 -788 c1199 -163 2247 -814 2907 -1806 359
-539 576 -1117 664 -1769 30 -220 37 -669 15 -906 -52 -536 -181 -987 -423
-1470 -242 -485 -563 -903 -959 -1250 -634 -555 -1367 -886 -2218 -1002 -220
-30 -785 -33 -996 -5 -405 54 -767 148 -1105 289 -1265 528 -2191 1650 -2465
2986 -63 308 -75 441 -75 832 0 392 12 523 76 835 165 804 575 1552 1166 2125
649 631 1475 1029 2361 1140 224 28 224 28 577 25 257 -3 351 -7 475 -24z"/>
<path d="M2778 7331 c-122 -39 -222 -124 -276 -234 -163 -331 110 -708 476
-656 264 37 444 306 377 562 -43 167 -165 289 -330 333 -69 19 -179 16 -247
-5z"/>
<path d="M2450 4290 l0 -1840 460 0 460 0 0 1840 0 1840 -460 0 -460 0 0
-1840z"/>
<path d="M3987 6123 c-4 -3 -7 -831 -7 -1840 l0 -1833 460 0 460 0 0 1078 c0
1211 -6 1113 78 1277 64 125 200 262 319 324 130 66 211 84 388 84 169 1 240
-13 336 -64 128 -69 259 -220 352 -406 l52 -106 5 -1091 5 -1091 458 -3 457
-2 0 1279 c0 1224 -1 1284 -20 1394 -33 197 -103 381 -199 527 -95 146 -285
302 -446 370 -193 80 -468 121 -672 100 -182 -19 -302 -49 -453 -113 -203 -87
-347 -186 -537 -371 l-123 -119 0 307 0 306 -453 0 c-250 0 -457 -3 -460 -7z"/>
</g>
</svg>
